<?xml version="1.0" encoding="utf-8" standalone="no"?>
<!DOCTYPE svg PUBLIC "-//W3C//DTD SVG 1.1//EN"
  "http://www.w3.org/Graphics/SVG/1.1/DTD/svg11.dtd">
<svg xmlns:xlink="http://www.w3.org/1999/xlink" width="572.4pt" height="365.1975pt" viewBox="0 0 572.4 365.1975" xmlns="http://www.w3.org/2000/svg" version="1.1">
 <metadata>
  <rdf:RDF xmlns:dc="http://purl.org/dc/elements/1.1/" xmlns:cc="http://creativecommons.org/ns#" xmlns:rdf="http://www.w3.org/1999/02/22-rdf-syntax-ns#">
   <cc:Work>
    <dc:type rdf:resource="http://purl.org/dc/dcmitype/StillImage"/>
    <dc:date>2025-08-03T14:29:29.957967</dc:date>
    <dc:format>image/svg+xml</dc:format>
    <dc:creator>
     <cc:Agent>
      <dc:title>Matplotlib v3.6.3, https://matplotlib.org/</dc:title>
     </cc:Agent>
    </dc:creator>
   </cc:Work>
  </rdf:RDF>
 </metadata>
 <defs>
  <style type="text/css">*{stroke-linejoin: round; stroke-linecap: butt}</style>
 </defs>
 <g id="figure_1">
  <g id="patch_1">
   <path d="M 0 365.1975 
L 572.4 365.1975 
L 572.4 -0 
L 0 -0 
z
" style="fill: #ffffff"/>
  </g>
  <g id="axes_1">
   <g id="patch_2">
    <path d="M 118.8 181.6983 
C 129.158833 181.6983 139.09479 179.244867 146.419591 174.87834 
C 153.744392 170.511813 157.86 164.588701 157.86 158.4135 
C 157.86 152.238299 153.744392 146.315187 146.419591 141.94866 
C 139.09479 137.582133 129.158833 135.1287 118.8 135.1287 
C 108.441167 135.1287 98.50521 137.582133 91.180409 141.94866 
C 83.855608 146.315187 79.74 152.238299 79.74 158.4135 
C 79.74 164.588701 83.855608 170.511813 91.180409 174.87834 
C 98.50521 179.244867 108.441167 181.6983 118.8 181.6983 
z
" clip-path="url(#p00c276b979)" style="fill: #add8e6; stroke: #0000ff; stroke-width: 2; stroke-linejoin: miter"/>
   </g>
   <g id="patch_3">
    <path d="M 286.2 115.1703 
C 296.558833 115.1703 306.49479 112.716867 313.819591 108.35034 
C 321.144392 103.983813 325.26 98.060701 325.26 91.8855 
C 325.26 85.710299 321.144392 79.787187 313.819591 75.42066 
C 306.49479 71.054133 296.558833 68.6007 286.2 68.6007 
C 275.841167 68.6007 265.90521 71.054133 258.580409 75.42066 
C 251.255608 79.787187 247.14 85.710299 247.14 91.8855 
C 247.14 98.060701 251.255608 103.983813 258.580409 108.35034 
C 265.90521 112.716867 275.841167 115.1703 286.2 115.1703 
z
" clip-path="url(#p00c276b979)" style="fill: #add8e6; stroke: #0000ff; stroke-width: 2; stroke-linejoin: miter"/>
   </g>
   <g id="patch_4">
    <path d="M 453.6 181.6983 
C 463.958833 181.6983 473.89479 179.244867 481.219591 174.87834 
C 488.544392 170.511813 492.66 164.588701 492.66 158.4135 
C 492.66 152.238299 488.544392 146.315187 481.219591 141.94866 
C 473.89479 137.582133 463.958833 135.1287 453.6 135.1287 
C 443.241167 135.1287 433.30521 137.582133 425.980409 141.94866 
C 418.655608 146.315187 414.54 152.238299 414.54 158.4135 
C 414.54 164.588701 418.655608 170.511813 425.980409 174.87834 
C 433.30521 179.244867 443.241167 181.6983 453.6 181.6983 
z
" clip-path="url(#p00c276b979)" style="fill: #add8e6; stroke: #0000ff; stroke-width: 2; stroke-linejoin: miter"/>
   </g>
   <g id="patch_5">
    <path d="M 286.2 248.2263 
C 296.558833 248.2263 306.49479 245.772867 313.819591 241.40634 
C 321.144392 237.039813 325.26 231.116701 325.26 224.9415 
C 325.26 218.766299 321.144392 212.843187 313.819591 208.47666 
C 306.49479 204.110133 296.558833 201.6567 286.2 201.6567 
C 275.841167 201.6567 265.90521 204.110133 258.580409 208.47666 
C 251.255608 212.843187 247.14 218.766299 247.14 224.9415 
C 247.14 231.116701 251.255608 237.039813 258.580409 241.40634 
C 265.90521 245.772867 275.841167 248.2263 286.2 248.2263 
z
" clip-path="url(#p00c276b979)" style="fill: #add8e6; stroke: #0000ff; stroke-width: 2; stroke-linejoin: miter"/>
   </g>
   <g id="patch_6">
    <path d="M 286.2 314.7543 
C 296.558833 314.7543 306.49479 312.300867 313.819591 307.93434 
C 321.144392 303.567813 325.26 297.644701 325.26 291.4695 
C 325.26 285.294299 321.144392 279.371187 313.819591 275.00466 
C 306.49479 270.638133 296.558833 268.1847 286.2 268.1847 
C 275.841167 268.1847 265.90521 270.638133 258.580409 275.00466 
C 251.255608 279.371187 247.14 285.294299 247.14 291.4695 
C 247.14 297.644701 251.255608 303.567813 258.580409 307.93434 
C 265.90521 312.300867 275.841167 314.7543 286.2 314.7543 
z
" clip-path="url(#p00c276b979)" style="fill: #add8e6; stroke: #0000ff; stroke-width: 2; stroke-linejoin: miter"/>
   </g>
   <g id="patch_7">
    <path d="M 120.656992 157.675496 
Q 202.500196 125.149422 282.265419 93.449178 
" clip-path="url(#p00c276b979)" style="fill: none; stroke: #0000ff; stroke-width: 2; stroke-linecap: round"/>
    <path d="M 275.581644 92.877208 
L 282.265419 93.449178 
L 277.797578 98.453017 
" clip-path="url(#p00c276b979)" style="fill: none; stroke: #0000ff; stroke-width: 2; stroke-linecap: round"/>
   </g>
   <g id="patch_8">
    <path d="M 288.056992 92.623504 
Q 369.900196 125.149578 449.665419 156.849822 
" clip-path="url(#p00c276b979)" style="fill: none; stroke: #0000ff; stroke-width: 2; stroke-linecap: round"/>
    <path d="M 445.197578 151.845983 
L 449.665419 156.849822 
L 442.981644 157.421792 
" clip-path="url(#p00c276b979)" style="fill: none; stroke: #0000ff; stroke-width: 2; stroke-linecap: round"/>
   </g>
   <g id="patch_9">
    <path d="M 286.2 93.88735 
Q 286.2 158.412561 286.2 220.701705 
" clip-path="url(#p00c276b979)" style="fill: none; stroke: #0000ff; stroke-width: 2; stroke-linecap: round"/>
    <path d="M 289.2 214.701705 
L 286.2 220.701705 
L 283.2 214.701705 
" clip-path="url(#p00c276b979)" style="fill: none; stroke: #0000ff; stroke-width: 2; stroke-linecap: round"/>
   </g>
   <g id="patch_10">
    <path d="M 286.2 93.886334 
Q 286.2 191.678485 286.2 287.234567 
" clip-path="url(#p00c276b979)" style="fill: none; stroke: #0000ff; stroke-width: 2; stroke-linecap: round"/>
    <path d="M 289.2 281.234567 
L 286.2 287.234567 
L 283.2 281.234567 
" clip-path="url(#p00c276b979)" style="fill: none; stroke: #0000ff; stroke-width: 2; stroke-linecap: round"/>
   </g>
   <g id="patch_11">
    <path d="M 120.365799 159.658058 
Q 202.499732 224.941287 282.88319 288.833171 
" clip-path="url(#p00c276b979)" style="fill: none; stroke: #0000ff; stroke-width: 2; stroke-linecap: round"/>
    <path d="M 280.05286 282.751294 
L 282.88319 288.833171 
L 276.31949 287.448309 
" clip-path="url(#p00c276b979)" style="fill: none; stroke: #0000ff; stroke-width: 2; stroke-linecap: round"/>
   </g>
   <g id="patch_12">
    <path d="M 120.800034 158.4135 
Q 286.200896 158.4135 449.36569 158.4135 
" clip-path="url(#p00c276b979)" style="fill: none; stroke: #0000ff; stroke-width: 2; stroke-linecap: round"/>
    <path d="M 443.36569 155.4135 
L 449.36569 158.4135 
L 443.36569 161.4135 
" clip-path="url(#p00c276b979)" style="fill: none; stroke: #0000ff; stroke-width: 2; stroke-linecap: round"/>
   </g>
   <g id="text_1">
    <!-- DAO -->
    <g style="fill: #333333" transform="translate(106.528906 161.172875) scale(0.1 -0.1)">
     <defs>
      <path id="DejaVuSans-Bold-44" d="M 1791 3756 
L 1791 909 
L 2222 909 
Q 2959 909 3348 1275 
Q 3738 1641 3738 2338 
Q 3738 3031 3350 3393 
Q 2963 3756 2222 3756 
L 1791 3756 
z
M 588 4666 
L 1856 4666 
Q 2919 4666 3439 4514 
Q 3959 4363 4331 4000 
Q 4659 3684 4818 3271 
Q 4978 2859 4978 2338 
Q 4978 1809 4818 1395 
Q 4659 981 4331 666 
Q 3956 303 3431 151 
Q 2906 0 1856 0 
L 588 0 
L 588 4666 
z
" transform="scale(0.015625)"/>
      <path id="DejaVuSans-Bold-41" d="M 3419 850 
L 1538 850 
L 1241 0 
L 31 0 
L 1759 4666 
L 3194 4666 
L 4922 0 
L 3713 0 
L 3419 850 
z
M 1838 1716 
L 3116 1716 
L 2478 3572 
L 1838 1716 
z
" transform="scale(0.015625)"/>
      <path id="DejaVuSans-Bold-4f" d="M 2719 3878 
Q 2169 3878 1866 3472 
Q 1563 3066 1563 2328 
Q 1563 1594 1866 1187 
Q 2169 781 2719 781 
Q 3272 781 3575 1187 
Q 3878 1594 3878 2328 
Q 3878 3066 3575 3472 
Q 3272 3878 2719 3878 
z
M 2719 4750 
Q 3844 4750 4481 4106 
Q 5119 3463 5119 2328 
Q 5119 1197 4481 553 
Q 3844 -91 2719 -91 
Q 1597 -91 958 553 
Q 319 1197 319 2328 
Q 319 3463 958 4106 
Q 1597 4750 2719 4750 
z
" transform="scale(0.015625)"/>
     </defs>
     <use xlink:href="#DejaVuSans-Bold-44"/>
     <use xlink:href="#DejaVuSans-Bold-41" x="83.007812"/>
     <use xlink:href="#DejaVuSans-Bold-4f" x="160.400391"/>
    </g>
   </g>
   <g id="text_2">
    <!-- Alliance Council -->
    <g style="fill: #333333" transform="translate(241.542969 94.644875) scale(0.1 -0.1)">
     <defs>
      <path id="DejaVuSans-Bold-6c" d="M 538 4863 
L 1656 4863 
L 1656 0 
L 538 0 
L 538 4863 
z
" transform="scale(0.015625)"/>
      <path id="DejaVuSans-Bold-69" d="M 538 3500 
L 1656 3500 
L 1656 0 
L 538 0 
L 538 3500 
z
M 538 4863 
L 1656 4863 
L 1656 3950 
L 538 3950 
L 538 4863 
z
" transform="scale(0.015625)"/>
      <path id="DejaVuSans-Bold-61" d="M 2106 1575 
Q 1756 1575 1579 1456 
Q 1403 1338 1403 1106 
Q 1403 894 1545 773 
Q 1688 653 1941 653 
Q 2256 653 2472 879 
Q 2688 1106 2688 1447 
L 2688 1575 
L 2106 1575 
z
M 3816 1997 
L 3816 0 
L 2688 0 
L 2688 519 
Q 2463 200 2181 54 
Q 1900 -91 1497 -91 
Q 953 -91 614 226 
Q 275 544 275 1050 
Q 275 1666 698 1953 
Q 1122 2241 2028 2241 
L 2688 2241 
L 2688 2328 
Q 2688 2594 2478 2717 
Q 2269 2841 1825 2841 
Q 1466 2841 1156 2769 
Q 847 2697 581 2553 
L 581 3406 
Q 941 3494 1303 3539 
Q 1666 3584 2028 3584 
Q 2975 3584 3395 3211 
Q 3816 2838 3816 1997 
z
" transform="scale(0.015625)"/>
      <path id="DejaVuSans-Bold-6e" d="M 4056 2131 
L 4056 0 
L 2931 0 
L 2931 347 
L 2931 1631 
Q 2931 2084 2911 2256 
Q 2891 2428 2841 2509 
Q 2775 2619 2662 2680 
Q 2550 2741 2406 2741 
Q 2056 2741 1856 2470 
Q 1656 2200 1656 1722 
L 1656 0 
L 538 0 
L 538 3500 
L 1656 3500 
L 1656 2988 
Q 1909 3294 2193 3439 
Q 2478 3584 2822 3584 
Q 3428 3584 3742 3212 
Q 4056 2841 4056 2131 
z
" transform="scale(0.015625)"/>
      <path id="DejaVuSans-Bold-63" d="M 3366 3391 
L 3366 2478 
Q 3138 2634 2908 2709 
Q 2678 2784 2431 2784 
Q 1963 2784 1702 2511 
Q 1441 2238 1441 1747 
Q 1441 1256 1702 982 
Q 1963 709 2431 709 
Q 2694 709 2930 787 
Q 3166 866 3366 1019 
L 3366 103 
Q 3103 6 2833 -42 
Q 2563 -91 2291 -91 
Q 1344 -91 809 395 
Q 275 881 275 1747 
Q 275 2613 809 3098 
Q 1344 3584 2291 3584 
Q 2566 3584 2833 3536 
Q 3100 3488 3366 3391 
z
" transform="scale(0.015625)"/>
      <path id="DejaVuSans-Bold-65" d="M 4031 1759 
L 4031 1441 
L 1416 1441 
Q 1456 1047 1700 850 
Q 1944 653 2381 653 
Q 2734 653 3104 758 
Q 3475 863 3866 1075 
L 3866 213 
Q 3469 63 3072 -14 
Q 2675 -91 2278 -91 
Q 1328 -91 801 392 
Q 275 875 275 1747 
Q 275 2603 792 3093 
Q 1309 3584 2216 3584 
Q 3041 3584 3536 3087 
Q 4031 2591 4031 1759 
z
M 2881 2131 
Q 2881 2450 2695 2645 
Q 2509 2841 2209 2841 
Q 1884 2841 1681 2658 
Q 1478 2475 1428 2131 
L 2881 2131 
z
" transform="scale(0.015625)"/>
      <path id="DejaVuSans-Bold-20" transform="scale(0.015625)"/>
      <path id="DejaVuSans-Bold-43" d="M 4288 256 
Q 3956 84 3597 -3 
Q 3238 -91 2847 -91 
Q 1681 -91 1000 561 
Q 319 1213 319 2328 
Q 319 3447 1000 4098 
Q 1681 4750 2847 4750 
Q 3238 4750 3597 4662 
Q 3956 4575 4288 4403 
L 4288 3438 
Q 3953 3666 3628 3772 
Q 3303 3878 2944 3878 
Q 2300 3878 1931 3465 
Q 1563 3053 1563 2328 
Q 1563 1606 1931 1193 
Q 2300 781 2944 781 
Q 3303 781 3628 887 
Q 3953 994 4288 1222 
L 4288 256 
z
" transform="scale(0.015625)"/>
      <path id="DejaVuSans-Bold-6f" d="M 2203 2784 
Q 1831 2784 1636 2517 
Q 1441 2250 1441 1747 
Q 1441 1244 1636 976 
Q 1831 709 2203 709 
Q 2569 709 2762 976 
Q 2956 1244 2956 1747 
Q 2956 2250 2762 2517 
Q 2569 2784 2203 2784 
z
M 2203 3584 
Q 3106 3584 3614 3096 
Q 4122 2609 4122 1747 
Q 4122 884 3614 396 
Q 3106 -91 2203 -91 
Q 1297 -91 786 396 
Q 275 884 275 1747 
Q 275 2609 786 3096 
Q 1297 3584 2203 3584 
z
" transform="scale(0.015625)"/>
      <path id="DejaVuSans-Bold-75" d="M 500 1363 
L 500 3500 
L 1625 3500 
L 1625 3150 
Q 1625 2866 1622 2436 
Q 1619 2006 1619 1863 
Q 1619 1441 1641 1255 
Q 1663 1069 1716 984 
Q 1784 875 1895 815 
Q 2006 756 2150 756 
Q 2500 756 2700 1025 
Q 2900 1294 2900 1772 
L 2900 3500 
L 4019 3500 
L 4019 0 
L 2900 0 
L 2900 506 
Q 2647 200 2364 54 
Q 2081 -91 1741 -91 
Q 1134 -91 817 281 
Q 500 653 500 1363 
z
" transform="scale(0.015625)"/>
     </defs>
     <use xlink:href="#DejaVuSans-Bold-41"/>
     <use xlink:href="#DejaVuSans-Bold-6c" x="77.392578"/>
     <use xlink:href="#DejaVuSans-Bold-6c" x="111.669922"/>
     <use xlink:href="#DejaVuSans-Bold-69" x="145.947266"/>
     <use xlink:href="#DejaVuSans-Bold-61" x="180.224609"/>
     <use xlink:href="#DejaVuSans-Bold-6e" x="247.705078"/>
     <use xlink:href="#DejaVuSans-Bold-63" x="318.896484"/>
     <use xlink:href="#DejaVuSans-Bold-65" x="378.173828"/>
     <use xlink:href="#DejaVuSans-Bold-20" x="445.996094"/>
     <use xlink:href="#DejaVuSans-Bold-43" x="480.810547"/>
     <use xlink:href="#DejaVuSans-Bold-6f" x="554.199219"/>
     <use xlink:href="#DejaVuSans-Bold-75" x="622.900391"/>
     <use xlink:href="#DejaVuSans-Bold-6e" x="694.091797"/>
     <use xlink:href="#DejaVuSans-Bold-63" x="765.283203"/>
     <use xlink:href="#DejaVuSans-Bold-69" x="824.560547"/>
     <use xlink:href="#DejaVuSans-Bold-6c" x="858.837891"/>
    </g>
   </g>
   <g id="text_3">
    <!-- Enterprises -->
    <g style="fill: #333333" transform="translate(421.276563 161.172875) scale(0.1 -0.1)">
     <defs>
      <path id="DejaVuSans-Bold-45" d="M 588 4666 
L 3834 4666 
L 3834 3756 
L 1791 3756 
L 1791 2888 
L 3713 2888 
L 3713 1978 
L 1791 1978 
L 1791 909 
L 3903 909 
L 3903 0 
L 588 0 
L 588 4666 
z
" transform="scale(0.015625)"/>
      <path id="DejaVuSans-Bold-74" d="M 1759 4494 
L 1759 3500 
L 2913 3500 
L 2913 2700 
L 1759 2700 
L 1759 1216 
Q 1759 972 1856 886 
Q 1953 800 2241 800 
L 2816 800 
L 2816 0 
L 1856 0 
Q 1194 0 917 276 
Q 641 553 641 1216 
L 641 2700 
L 84 2700 
L 84 3500 
L 641 3500 
L 641 4494 
L 1759 4494 
z
" transform="scale(0.015625)"/>
      <path id="DejaVuSans-Bold-72" d="M 3138 2547 
Q 2991 2616 2845 2648 
Q 2700 2681 2553 2681 
Q 2122 2681 1889 2404 
Q 1656 2128 1656 1613 
L 1656 0 
L 538 0 
L 538 3500 
L 1656 3500 
L 1656 2925 
Q 1872 3269 2151 3426 
Q 2431 3584 2822 3584 
Q 2878 3584 2943 3579 
Q 3009 3575 3134 3559 
L 3138 2547 
z
" transform="scale(0.015625)"/>
      <path id="DejaVuSans-Bold-70" d="M 1656 506 
L 1656 -1331 
L 538 -1331 
L 538 3500 
L 1656 3500 
L 1656 2988 
Q 1888 3294 2169 3439 
Q 2450 3584 2816 3584 
Q 3463 3584 3878 3070 
Q 4294 2556 4294 1747 
Q 4294 938 3878 423 
Q 3463 -91 2816 -91 
Q 2450 -91 2169 54 
Q 1888 200 1656 506 
z
M 2400 2772 
Q 2041 2772 1848 2508 
Q 1656 2244 1656 1747 
Q 1656 1250 1848 986 
Q 2041 722 2400 722 
Q 2759 722 2948 984 
Q 3138 1247 3138 1747 
Q 3138 2247 2948 2509 
Q 2759 2772 2400 2772 
z
" transform="scale(0.015625)"/>
      <path id="DejaVuSans-Bold-73" d="M 3272 3391 
L 3272 2541 
Q 2913 2691 2578 2766 
Q 2244 2841 1947 2841 
Q 1628 2841 1473 2761 
Q 1319 2681 1319 2516 
Q 1319 2381 1436 2309 
Q 1553 2238 1856 2203 
L 2053 2175 
Q 2913 2066 3209 1816 
Q 3506 1566 3506 1031 
Q 3506 472 3093 190 
Q 2681 -91 1863 -91 
Q 1516 -91 1145 -36 
Q 775 19 384 128 
L 384 978 
Q 719 816 1070 734 
Q 1422 653 1784 653 
Q 2113 653 2278 743 
Q 2444 834 2444 1013 
Q 2444 1163 2330 1236 
Q 2216 1309 1875 1350 
L 1678 1375 
Q 931 1469 631 1722 
Q 331 1975 331 2491 
Q 331 3047 712 3315 
Q 1094 3584 1881 3584 
Q 2191 3584 2531 3537 
Q 2872 3491 3272 3391 
z
" transform="scale(0.015625)"/>
     </defs>
     <use xlink:href="#DejaVuSans-Bold-45"/>
     <use xlink:href="#DejaVuSans-Bold-6e" x="68.310547"/>
     <use xlink:href="#DejaVuSans-Bold-74" x="139.501953"/>
     <use xlink:href="#DejaVuSans-Bold-65" x="187.304688"/>
     <use xlink:href="#DejaVuSans-Bold-72" x="255.126953"/>
     <use xlink:href="#DejaVuSans-Bold-70" x="304.443359"/>
     <use xlink:href="#DejaVuSans-Bold-72" x="376.025391"/>
     <use xlink:href="#DejaVuSans-Bold-69" x="425.341797"/>
     <use xlink:href="#DejaVuSans-Bold-73" x="459.619141"/>
     <use xlink:href="#DejaVuSans-Bold-65" x="519.140625"/>
     <use xlink:href="#DejaVuSans-Bold-73" x="586.962891"/>
    </g>
   </g>
   <g id="text_4">
    <!-- Regulators -->
    <g style="fill: #333333" transform="translate(255.465625 227.661812) scale(0.1 -0.1)">
     <defs>
      <path id="DejaVuSans-Bold-52" d="M 2297 2597 
Q 2675 2597 2839 2737 
Q 3003 2878 3003 3200 
Q 3003 3519 2839 3656 
Q 2675 3794 2297 3794 
L 1791 3794 
L 1791 2597 
L 2297 2597 
z
M 1791 1766 
L 1791 0 
L 588 0 
L 588 4666 
L 2425 4666 
Q 3347 4666 3776 4356 
Q 4206 4047 4206 3378 
Q 4206 2916 3982 2619 
Q 3759 2322 3309 2181 
Q 3556 2125 3751 1926 
Q 3947 1728 4147 1325 
L 4800 0 
L 3519 0 
L 2950 1159 
Q 2778 1509 2601 1637 
Q 2425 1766 2131 1766 
L 1791 1766 
z
" transform="scale(0.015625)"/>
      <path id="DejaVuSans-Bold-67" d="M 2919 594 
Q 2688 288 2409 144 
Q 2131 0 1766 0 
Q 1125 0 706 504 
Q 288 1009 288 1791 
Q 288 2575 706 3076 
Q 1125 3578 1766 3578 
Q 2131 3578 2409 3434 
Q 2688 3291 2919 2981 
L 2919 3500 
L 4044 3500 
L 4044 353 
Q 4044 -491 3511 -936 
Q 2978 -1381 1966 -1381 
Q 1638 -1381 1331 -1331 
Q 1025 -1281 716 -1178 
L 716 -306 
Q 1009 -475 1290 -558 
Q 1572 -641 1856 -641 
Q 2406 -641 2662 -400 
Q 2919 -159 2919 353 
L 2919 594 
z
M 2181 2772 
Q 1834 2772 1640 2515 
Q 1447 2259 1447 1791 
Q 1447 1309 1634 1061 
Q 1822 813 2181 813 
Q 2531 813 2725 1069 
Q 2919 1325 2919 1791 
Q 2919 2259 2725 2515 
Q 2531 2772 2181 2772 
z
" transform="scale(0.015625)"/>
     </defs>
     <use xlink:href="#DejaVuSans-Bold-52"/>
     <use xlink:href="#DejaVuSans-Bold-65" x="77.001953"/>
     <use xlink:href="#DejaVuSans-Bold-67" x="144.824219"/>
     <use xlink:href="#DejaVuSans-Bold-75" x="216.40625"/>
     <use xlink:href="#DejaVuSans-Bold-6c" x="287.597656"/>
     <use xlink:href="#DejaVuSans-Bold-61" x="321.875"/>
     <use xlink:href="#DejaVuSans-Bold-74" x="389.355469"/>
     <use xlink:href="#DejaVuSans-Bold-6f" x="437.158203"/>
     <use xlink:href="#DejaVuSans-Bold-72" x="505.859375"/>
     <use xlink:href="#DejaVuSans-Bold-73" x="555.175781"/>
    </g>
   </g>
   <g id="text_5">
    <!-- Developers -->
    <g style="fill: #333333" transform="translate(254.446094 294.228875) scale(0.1 -0.1)">
     <defs>
      <path id="DejaVuSans-Bold-76" d="M 97 3500 
L 1216 3500 
L 2088 1081 
L 2956 3500 
L 4078 3500 
L 2700 0 
L 1472 0 
L 97 3500 
z
" transform="scale(0.015625)"/>
     </defs>
     <use xlink:href="#DejaVuSans-Bold-44"/>
     <use xlink:href="#DejaVuSans-Bold-65" x="83.007812"/>
     <use xlink:href="#DejaVuSans-Bold-76" x="150.830078"/>
     <use xlink:href="#DejaVuSans-Bold-65" x="216.015625"/>
     <use xlink:href="#DejaVuSans-Bold-6c" x="283.837891"/>
     <use xlink:href="#DejaVuSans-Bold-6f" x="318.115234"/>
     <use xlink:href="#DejaVuSans-Bold-70" x="386.816406"/>
     <use xlink:href="#DejaVuSans-Bold-65" x="458.398438"/>
     <use xlink:href="#DejaVuSans-Bold-72" x="526.220703"/>
     <use xlink:href="#DejaVuSans-Bold-73" x="575.537109"/>
    </g>
   </g>
   <g id="text_6">
    <!-- Fabric Alliance Charter Diagram -->
    <g style="fill: #333333" transform="translate(142.32 19.3575) scale(0.16 -0.16)">
     <defs>
      <path id="DejaVuSans-Bold-46" d="M 588 4666 
L 3834 4666 
L 3834 3756 
L 1791 3756 
L 1791 2888 
L 3713 2888 
L 3713 1978 
L 1791 1978 
L 1791 0 
L 588 0 
L 588 4666 
z
" transform="scale(0.015625)"/>
      <path id="DejaVuSans-Bold-62" d="M 2400 722 
Q 2759 722 2948 984 
Q 3138 1247 3138 1747 
Q 3138 2247 2948 2509 
Q 2759 2772 2400 2772 
Q 2041 2772 1848 2508 
Q 1656 2244 1656 1747 
Q 1656 1250 1848 986 
Q 2041 722 2400 722 
z
M 1656 2988 
Q 1888 3294 2169 3439 
Q 2450 3584 2816 3584 
Q 3463 3584 3878 3070 
Q 4294 2556 4294 1747 
Q 4294 938 3878 423 
Q 3463 -91 2816 -91 
Q 2450 -91 2169 54 
Q 1888 200 1656 506 
L 1656 0 
L 538 0 
L 538 4863 
L 1656 4863 
L 1656 2988 
z
" transform="scale(0.015625)"/>
      <path id="DejaVuSans-Bold-68" d="M 4056 2131 
L 4056 0 
L 2931 0 
L 2931 347 
L 2931 1625 
Q 2931 2084 2911 2256 
Q 2891 2428 2841 2509 
Q 2775 2619 2662 2680 
Q 2550 2741 2406 2741 
Q 2056 2741 1856 2470 
Q 1656 2200 1656 1722 
L 1656 0 
L 538 0 
L 538 4863 
L 1656 4863 
L 1656 2988 
Q 1909 3294 2193 3439 
Q 2478 3584 2822 3584 
Q 3428 3584 3742 3212 
Q 4056 2841 4056 2131 
z
" transform="scale(0.015625)"/>
      <path id="DejaVuSans-Bold-6d" d="M 3781 2919 
Q 3994 3244 4286 3414 
Q 4578 3584 4928 3584 
Q 5531 3584 5847 3212 
Q 6163 2841 6163 2131 
L 6163 0 
L 5038 0 
L 5038 1825 
Q 5041 1866 5042 1909 
Q 5044 1953 5044 2034 
Q 5044 2406 4934 2573 
Q 4825 2741 4581 2741 
Q 4263 2741 4089 2478 
Q 3916 2216 3909 1719 
L 3909 0 
L 2784 0 
L 2784 1825 
Q 2784 2406 2684 2573 
Q 2584 2741 2328 2741 
Q 2006 2741 1831 2477 
Q 1656 2213 1656 1722 
L 1656 0 
L 531 0 
L 531 3500 
L 1656 3500 
L 1656 2988 
Q 1863 3284 2130 3434 
Q 2397 3584 2719 3584 
Q 3081 3584 3359 3409 
Q 3638 3234 3781 2919 
z
" transform="scale(0.015625)"/>
     </defs>
     <use xlink:href="#DejaVuSans-Bold-46"/>
     <use xlink:href="#DejaVuSans-Bold-61" x="62.435547"/>
     <use xlink:href="#DejaVuSans-Bold-62" x="129.916016"/>
     <use xlink:href="#DejaVuSans-Bold-72" x="201.498047"/>
     <use xlink:href="#DejaVuSans-Bold-69" x="250.814453"/>
     <use xlink:href="#DejaVuSans-Bold-63" x="285.091797"/>
     <use xlink:href="#DejaVuSans-Bold-20" x="344.369141"/>
     <use xlink:href="#DejaVuSans-Bold-41" x="379.183594"/>
     <use xlink:href="#DejaVuSans-Bold-6c" x="456.576172"/>
     <use xlink:href="#DejaVuSans-Bold-6c" x="490.853516"/>
     <use xlink:href="#DejaVuSans-Bold-69" x="525.130859"/>
     <use xlink:href="#DejaVuSans-Bold-61" x="559.408203"/>
     <use xlink:href="#DejaVuSans-Bold-6e" x="626.888672"/>
     <use xlink:href="#DejaVuSans-Bold-63" x="698.080078"/>
     <use xlink:href="#DejaVuSans-Bold-65" x="757.357422"/>
     <use xlink:href="#DejaVuSans-Bold-20" x="825.179688"/>
     <use xlink:href="#DejaVuSans-Bold-43" x="859.994141"/>
     <use xlink:href="#DejaVuSans-Bold-68" x="933.382812"/>
     <use xlink:href="#DejaVuSans-Bold-61" x="1004.574219"/>
     <use xlink:href="#DejaVuSans-Bold-72" x="1072.054688"/>
     <use xlink:href="#DejaVuSans-Bold-74" x="1121.371094"/>
     <use xlink:href="#DejaVuSans-Bold-65" x="1169.173828"/>
     <use xlink:href="#DejaVuSans-Bold-72" x="1236.996094"/>
     <use xlink:href="#DejaVuSans-Bold-20" x="1286.3125"/>
     <use xlink:href="#DejaVuSans-Bold-44" x="1321.126953"/>
     <use xlink:href="#DejaVuSans-Bold-69" x="1404.134766"/>
     <use xlink:href="#DejaVuSans-Bold-61" x="1438.412109"/>
     <use xlink:href="#DejaVuSans-Bold-67" x="1505.892578"/>
     <use xlink:href="#DejaVuSans-Bold-72" x="1577.474609"/>
     <use xlink:href="#DejaVuSans-Bold-61" x="1626.791016"/>
     <use xlink:href="#DejaVuSans-Bold-6d" x="1694.271484"/>
    </g>
   </g>
  </g>
 </g>
 <defs>
  <clipPath id="p00c276b979">
   <rect x="7.2" y="25.3575" width="558" height="332.64"/>
  </clipPath>
 </defs>
</svg>
